<svg width="20" height="20" viewBox="0 0 20 20" fill="none" xmlns="http://www.w3.org/2000/svg">
<path fill-rule="evenodd" clip-rule="evenodd" d="M15.625 13.125C15.625 13.125 16.6605 13.125 17.3928 13.8572C17.3928 13.8572 18.125 14.5895 18.125 15.625C18.125 15.625 18.125 16.6605 17.3928 17.3928C17.3928 17.3928 16.6605 18.125 15.625 18.125C15.625 18.125 14.5895 18.125 13.8572 17.3928C13.8572 17.3928 13.125 16.6605 13.125 15.625C13.125 15.625 13.125 14.5895 13.8572 13.8572C13.8572 13.8572 14.5895 13.125 15.625 13.125ZM15.625 14.375C15.625 14.375 15.1072 14.375 14.7411 14.7411C14.7411 14.7411 14.375 15.1072 14.375 15.625C14.375 15.625 14.375 16.1428 14.7411 16.5089C14.7411 16.5089 15.1072 16.875 15.625 16.875C15.625 16.875 16.1428 16.875 16.5089 16.5089C16.5089 16.5089 16.875 16.1428 16.875 15.625C16.875 15.625 16.875 15.1072 16.5089 14.7411C16.5089 14.7411 16.1428 14.375 15.625 14.375Z" fill="#16171B"/>
<path d="M5.625 16.25H13.75C14.0952 16.25 14.375 15.9702 14.375 15.625C14.375 15.2798 14.0952 15 13.75 15H5.625C4.58947 15 3.85723 14.2678 3.85723 14.2678C3.125 13.5355 3.125 12.5 3.125 12.5C3.125 11.4645 3.85723 10.7322 3.85723 10.7322C4.58947 10 5.625 10 5.625 10H13.125C14.4194 10 15.3347 9.08471 15.3347 9.08471C16.25 8.16942 16.25 6.875 16.25 6.875C16.25 5.58058 15.3347 4.66529 15.3347 4.66529C14.4194 3.75 13.125 3.75 13.125 3.75L5.625 3.75C5.27982 3.75 5 4.02982 5 4.375C5 4.72018 5.27982 5 5.625 5H13.125C13.9017 5 14.4508 5.54917 14.4508 5.54917C15 6.09835 15 6.875 15 6.875C15 7.65165 14.4508 8.20083 14.4508 8.20083C13.9016 8.75 13.125 8.75 13.125 8.75H5.625C4.0717 8.75 2.97335 9.84835 2.97335 9.84835C1.875 10.9467 1.875 12.5 1.875 12.5C1.875 14.0533 2.97335 15.1517 2.97335 15.1517C4.0717 16.25 5.625 16.25 5.625 16.25Z" fill="#16171B"/>
</svg>
