<svg width="20" height="20" viewBox="0 0 20 20" fill="none" xmlns="http://www.w3.org/2000/svg">
<path fill-rule="evenodd" clip-rule="evenodd" d="M10 1.875C10 1.875 11.2711 1.875 12.433 2.36641C12.433 2.36641 13.5547 2.84086 14.4194 3.70558C14.4194 3.70558 15.2841 4.57031 15.7586 5.69203C15.7586 5.69203 16.25 6.85386 16.25 8.125C16.25 8.125 16.25 9.39615 15.7586 10.558C15.7586 10.558 15.2841 11.6797 14.4194 12.5444C14.4194 12.5444 13.5547 13.4091 12.433 13.8836C12.433 13.8836 11.2711 14.375 10 14.375C10 14.375 8.72885 14.375 7.56703 13.8836C7.56703 13.8836 6.4453 13.4091 5.58058 12.5444C5.58058 12.5444 4.71586 11.6797 4.24141 10.558C4.24141 10.558 3.75 9.39614 3.75 8.125C3.75 8.125 3.75 6.85386 4.24141 5.69203C4.24141 5.69203 4.71586 4.5703 5.58058 3.70558C5.58058 3.70558 6.4453 2.84086 7.56703 2.36641C7.56703 2.36641 8.72886 1.875 10 1.875ZM10 3.125C10 3.125 7.92893 3.125 6.46447 4.58947C6.46447 4.58947 5 6.05393 5 8.125C5 8.125 5 10.1961 6.46447 11.6605C6.46447 11.6605 7.92893 13.125 10 13.125C10 13.125 12.0711 13.125 13.5355 11.6605C13.5355 11.6605 15 10.1961 15 8.125C15 8.125 15 6.05393 13.5355 4.58947C13.5355 4.58947 12.0711 3.125 10 3.125Z" fill="#16171B"/>
<path fill-rule="evenodd" clip-rule="evenodd" d="M10 5C10 5 11.2944 5 12.2097 5.91529C12.2097 5.91529 13.125 6.83058 13.125 8.125C13.125 8.125 13.125 9.41942 12.2097 10.3347C12.2097 10.3347 11.2944 11.25 10 11.25C10 11.25 8.70558 11.25 7.79029 10.3347C7.79029 10.3347 6.875 9.41942 6.875 8.125C6.875 8.125 6.875 6.83058 7.79029 5.91529C7.79029 5.91529 8.70558 5 10 5ZM10 6.25C10 6.25 9.22335 6.25 8.67418 6.79917C8.67418 6.79917 8.125 7.34835 8.125 8.125C8.125 8.125 8.125 8.90165 8.67418 9.45083C8.67418 9.45083 9.22335 10 10 10C10 10 10.7767 10 11.3258 9.45083C11.3258 9.45083 11.875 8.90165 11.875 8.125C11.875 8.125 11.875 7.34835 11.3258 6.79917C11.3258 6.79917 10.7767 6.25 10 6.25Z" fill="#16171B"/>
<path d="M9.375 13.75V16.25C9.375 16.5952 9.65482 16.875 10 16.875C10.3452 16.875 10.625 16.5952 10.625 16.25V13.75C10.625 13.4048 10.3452 13.125 10 13.125C9.65482 13.125 9.375 13.4048 9.375 13.75Z" fill="#16171B"/>
<path d="M2.5 16.875H17.5C17.8452 16.875 18.125 16.5952 18.125 16.25C18.125 15.9048 17.8452 15.625 17.5 15.625H2.5C2.15482 15.625 1.875 15.9048 1.875 16.25C1.875 16.5952 2.15482 16.875 2.5 16.875Z" fill="#16171B"/>
</svg>
