<svg width="20" height="20" viewBox="0 0 20 20" fill="none" xmlns="http://www.w3.org/2000/svg">
<path d="M12.5 4.375V16.875C12.5 17.2202 12.7798 17.5 13.125 17.5C13.4702 17.5 13.75 17.2202 13.75 16.875V4.375C13.75 3.59835 13.2008 3.04917 13.2008 3.04917C12.6516 2.5 11.875 2.5 11.875 2.5H5.625C4.84835 2.5 4.29917 3.04917 4.29917 3.04917C3.75 3.59835 3.75 4.375 3.75 4.375V16.875C3.75 17.2202 4.02982 17.5 4.375 17.5C4.72018 17.5 5 17.2202 5 16.875V4.375C5 4.11612 5.18306 3.93306 5.18306 3.93306C5.36612 3.75 5.625 3.75 5.625 3.75H11.875C12.1339 3.75 12.3169 3.93306 12.3169 3.93306C12.5 4.11612 12.5 4.375 12.5 4.375Z" fill="#16171B"/>
<path d="M2.5 17.5H15C15.3452 17.5 15.625 17.2202 15.625 16.875C15.625 16.5298 15.3452 16.25 15 16.25H2.5C2.15482 16.25 1.875 16.5298 1.875 16.875C1.875 17.2202 2.15482 17.5 2.5 17.5Z" fill="#16171B"/>
<path d="M10.625 8.125H6.875C6.52982 8.125 6.25 8.40482 6.25 8.75C6.25 9.09518 6.52982 9.375 6.875 9.375H10.625C10.9702 9.375 11.25 9.09518 11.25 8.75C11.25 8.40482 10.9702 8.125 10.625 8.125Z" fill="#16171B"/>
<path d="M13.125 11.875L18.125 6.875" stroke="#16171B" stroke-width="1.25" stroke-linecap="round"/>
</svg>
