<svg width="20" height="20" viewBox="0 0 20 20" fill="none" xmlns="http://www.w3.org/2000/svg">
<path fill-rule="evenodd" clip-rule="evenodd" d="M8.75 10V2.5C8.75 2.15482 9.02982 1.875 9.375 1.875C9.51023 1.875 9.64181 1.91886 9.75 2L14.75 5.75C15.0261 5.95711 15.0821 6.34886 14.875 6.625C14.8395 6.67238 14.7974 6.71447 14.75 6.75L9.75 10.5C9.47386 10.7071 9.08211 10.6511 8.875 10.375C8.79386 10.2668 8.75 10.1352 8.75 10ZM13.3333 6.25L10 8.75V3.75L13.3333 6.25Z" fill="#16171B"/>
<path fill-rule="evenodd" clip-rule="evenodd" d="M8.75 17.5V10C8.75 9.65482 9.02982 9.375 9.375 9.375C9.51023 9.375 9.64181 9.41886 9.75 9.5L14.75 13.25C15.0261 13.4571 15.0821 13.8489 14.875 14.125C14.8395 14.1724 14.7974 14.2145 14.75 14.25L9.75 18C9.47386 18.2071 9.08211 18.1511 8.875 17.875C8.79386 17.7668 8.75 17.6352 8.75 17.5ZM13.3333 13.75L10 16.25V11.25L13.3333 13.75Z" fill="#16171B"/>
<path d="M4 6.75L9 10.5C9.10818 10.5811 9.23977 10.625 9.375 10.625C9.38301 10.625 9.39101 10.6248 9.39902 10.6245C9.58717 10.6173 9.76203 10.5256 9.875 10.375C9.95614 10.2668 10 10.1352 10 10L9.99998 9.9945C9.99973 9.96676 9.99764 9.93907 9.99372 9.91161C9.97028 9.74752 9.88261 9.59946 9.75 9.5L4.75 5.75C4.64181 5.66886 4.51023 5.625 4.375 5.625L4.3695 5.62502C4.34176 5.62527 4.31407 5.62736 4.28661 5.63128C4.12252 5.65472 3.97446 5.74239 3.875 5.875C3.79386 5.98319 3.75 6.11477 3.75 6.25L3.75002 6.2555C3.75027 6.28324 3.75236 6.31093 3.75628 6.33839C3.77972 6.50248 3.86739 6.65054 4 6.75Z" fill="#16171B"/>
<path d="M4.75 14.25L9.75 10.5C9.88261 10.4005 9.97028 10.2525 9.99372 10.0884C9.9979 10.0591 10 10.0296 10 10L10 9.99786C9.99953 9.86336 9.9557 9.7326 9.875 9.625C9.75697 9.46762 9.57172 9.375 9.375 9.375L9.3668 9.37505C9.23438 9.37679 9.10594 9.42054 9 9.5L4 13.25C3.86739 13.3495 3.77972 13.4975 3.75628 13.6616C3.7521 13.6909 3.75 13.7204 3.75 13.75L3.75 13.7521C3.75047 13.8866 3.7943 14.0174 3.875 14.125C3.97446 14.2576 4.12252 14.3453 4.28661 14.3687C4.31589 14.3729 4.34543 14.375 4.375 14.375L4.37714 14.375C4.51164 14.3745 4.6424 14.3307 4.75 14.25Z" fill="#16171B"/>
</svg>
