<svg width="20" height="20" viewBox="0 0 20 20" fill="none" xmlns="http://www.w3.org/2000/svg">
<path d="M6.69171 14.1922C6.80892 14.075 6.875 13.9158 6.875 13.75C6.875 13.5842 6.80915 13.4253 6.69194 13.3081L6.68655 13.3027C6.56984 13.189 6.41296 13.125 6.25 13.125C6.08424 13.125 5.92527 13.1908 5.80806 13.3081L1.43329 17.6828C1.31608 17.8 1.25 17.9592 1.25 18.125C1.25 18.135 1.25024 18.145 1.25072 18.155C1.25819 18.3102 1.32319 18.4571 1.43306 18.5669C1.55027 18.6842 1.70924 18.75 1.875 18.75C2.04076 18.75 2.19973 18.6842 2.31694 18.5669L6.69171 14.1922Z" fill="#16171B"/>
<path d="M18.5667 2.31718C18.6839 2.19997 18.75 2.04076 18.75 1.875C18.75 1.70924 18.6842 1.55027 18.5669 1.43306L18.5615 1.42773C18.4448 1.314 18.288 1.25 18.125 1.25C17.9592 1.25 17.8003 1.31585 17.6831 1.43306L13.3083 5.80782C13.1911 5.92503 13.125 6.08424 13.125 6.25C13.125 6.26001 13.1252 6.27002 13.1257 6.28002C13.1332 6.43522 13.1982 6.58207 13.3081 6.69194C13.4253 6.80915 13.5842 6.875 13.75 6.875C13.9158 6.875 14.0747 6.80915 14.1919 6.69194L18.5667 2.31718Z" fill="#16171B"/>
<path fill-rule="evenodd" clip-rule="evenodd" d="M4.94678 13.3312C4.94678 13.3312 4.21455 12.5989 4.21455 11.5634C4.21455 11.5634 4.21455 10.5279 4.94678 9.79565L9.79709 4.94534C9.79709 4.94534 10.5293 4.2131 11.5649 4.21311C11.5649 4.21311 12.6004 4.21311 13.3326 4.94534L15.0562 6.66891C15.0562 6.66891 15.7884 7.40114 15.7884 8.43668C15.7884 8.43668 15.7884 9.47221 15.0562 10.2044L10.2059 15.0548C10.2059 15.0548 9.47366 15.787 8.43812 15.787C8.43812 15.787 7.40259 15.787 6.67036 15.0548L4.94678 13.3312ZM5.83067 12.4473L7.55424 14.1709C7.55424 14.1709 7.92036 14.537 8.43812 14.537C8.43812 14.537 8.95589 14.537 9.32201 14.1709L14.1723 9.32056C14.1723 9.32056 14.5384 8.95444 14.5384 8.43668C14.5384 8.43668 14.5384 7.91891 14.1723 7.5528L12.4487 5.82922C12.4487 5.82922 12.0826 5.46311 11.5649 5.46311C11.5649 5.46311 11.0471 5.46311 10.681 5.82922L5.83067 10.6795C5.83067 10.6795 5.46455 11.0456 5.46455 11.5634C5.46455 11.5634 5.46455 12.0812 5.83067 12.4473Z" fill="#16171B"/>
<path d="M12.3702 13.2541C12.4874 13.3713 12.6467 13.4375 12.8125 13.4375C12.9783 13.4375 13.1372 13.3717 13.2544 13.2544C13.3717 13.1372 13.4375 12.9783 13.4375 12.8125C13.4375 12.6467 13.3717 12.4878 13.2544 12.3706L7.62944 6.74556C7.51223 6.62835 7.35326 6.5625 7.1875 6.5625C7.02174 6.5625 6.86277 6.62835 6.74556 6.74556C6.62835 6.86277 6.5625 7.02174 6.5625 7.1875C6.5625 7.35326 6.62835 7.51223 6.74556 7.62944L12.3702 13.2541Z" fill="#16171B"/>
<path d="M17.6976 11.9071L15.8226 11.2821C15.7589 11.2608 15.6922 11.25 15.625 11.25C15.6135 11.25 15.602 11.2503 15.5905 11.251C15.3345 11.2651 15.1131 11.4341 15.0321 11.6774C15.0108 11.7411 15 11.8078 15 11.875C15 11.8865 15.0003 11.898 15.001 11.9095C15.0151 12.1655 15.1841 12.3869 15.4274 12.4679L17.3021 13.0929C17.3659 13.1141 17.4328 13.125 17.5 13.125L17.5133 13.1249C17.6058 13.1229 17.6967 13.1004 17.7795 13.059C17.9278 12.9849 18.0405 12.8549 18.0929 12.6976C18.1142 12.6339 18.125 12.5672 18.125 12.5L18.1249 12.4867C18.1229 12.3942 18.1004 12.3033 18.059 12.2205C17.9849 12.0722 17.8549 11.9595 17.6976 11.9071Z" fill="#16171B"/>
<path d="M4.57258 7.53205L2.69764 6.90707C2.63391 6.88583 2.56718 6.875 2.5 6.875C2.4885 6.875 2.477 6.87532 2.46551 6.87595C2.20953 6.8901 1.98815 7.05914 1.90707 7.30236C1.88583 7.36609 1.875 7.43282 1.875 7.5C1.875 7.5115 1.87532 7.523 1.87595 7.53449C1.8901 7.79047 2.05914 8.01185 2.30236 8.09293L4.17715 8.71786C4.24088 8.7391 4.30782 8.75 4.375 8.75L4.38827 8.74986C4.4808 8.74789 4.57173 8.72541 4.65451 8.68402C4.80277 8.60989 4.91551 8.4799 4.96793 8.32264C4.98917 8.25891 5 8.19218 5 8.125L4.99986 8.11173C4.99789 8.01921 4.97541 7.92827 4.93402 7.84549C4.85989 7.69723 4.7299 7.58449 4.57258 7.53205Z" fill="#16171B"/>
<path d="M7.53207 4.57264C7.58449 4.7299 7.69723 4.85989 7.84549 4.93402C7.93228 4.97741 8.02797 5 8.125 5L8.12726 5C8.19367 4.99976 8.25963 4.98893 8.32264 4.96793C8.4799 4.91551 8.60989 4.80277 8.68402 4.65451C8.72741 4.56772 8.75 4.47203 8.75 4.375L8.75 4.37274C8.74976 4.30633 8.73893 4.24037 8.71793 4.17736L8.09293 2.30236C8.00786 2.04714 7.76902 1.875 7.5 1.875L7.48834 1.87511C7.42508 1.87629 7.36238 1.88707 7.30236 1.90707C7.04714 1.99214 6.875 2.23098 6.875 2.5L6.87511 2.51166C6.87629 2.57492 6.88707 2.63762 6.90707 2.69764L7.53207 4.57264Z" fill="#16171B"/>
<path d="M11.9071 17.6976C11.9595 17.8549 12.0722 17.9849 12.2205 18.059C12.3073 18.1024 12.403 18.125 12.5 18.125L12.5023 18.125C12.5687 18.1248 12.6346 18.1139 12.6976 18.0929C12.8549 18.0405 12.9849 17.9278 13.059 17.7795C13.1024 17.6927 13.125 17.597 13.125 17.5L13.125 17.4977C13.1248 17.4313 13.1139 17.3654 13.0929 17.3024L12.4679 15.4274C12.3829 15.1721 12.144 15 11.875 15L11.8633 15.0001C11.8001 15.0013 11.7374 15.0121 11.6774 15.0321C11.4221 15.1171 11.25 15.356 11.25 15.625L11.2501 15.6367C11.2513 15.6999 11.2621 15.7626 11.2821 15.8226L11.9071 17.6976Z" fill="#16171B"/>
</svg>
