<svg width="20" height="20" viewBox="0 0 20 20" fill="none" xmlns="http://www.w3.org/2000/svg">
<g clip-path="url(#clip0_659_72199)">
<path d="M5.74945 14.9587C5.86943 14.9364 5.98026 14.8795 6.06826 14.795L6.07245 14.7909C6.10142 14.7626 6.12757 14.7314 6.15051 14.698C6.24434 14.5614 6.28004 14.3931 6.24975 14.2301C6.22746 14.1101 6.17053 13.9993 6.08598 13.9113L6.08193 13.9071C6.05357 13.8781 6.02246 13.852 5.98904 13.829C5.85239 13.7352 5.68406 13.6995 5.52109 13.7298L1.84406 14.413C1.72408 14.4353 1.61325 14.4922 1.52525 14.5768L1.52354 14.5784C1.37298 14.7242 1.30548 14.9357 1.34376 15.1417C1.36605 15.2617 1.42298 15.3725 1.50753 15.4605L1.51159 15.4647C1.53994 15.4937 1.57105 15.5198 1.60447 15.5427C1.74113 15.6366 1.90945 15.6723 2.07242 15.642L5.74945 14.9587Z" fill="#16171B"/>
<path d="M3.79694 18.7523L8.21154 17.9346C8.33165 17.9124 8.44262 17.8554 8.53071 17.7708L8.53464 17.767C8.56362 17.7386 8.58979 17.7076 8.61275 17.6741C8.70666 17.5376 8.74245 17.3692 8.71227 17.2063C8.69002 17.0861 8.63306 16.9752 8.54843 16.8871L8.54703 16.8856C8.40138 16.735 8.18993 16.6674 7.98389 16.7055L3.56929 17.5232C3.44918 17.5454 3.33822 17.6024 3.25012 17.687L3.24867 17.6884C3.09804 17.8341 3.03041 18.0455 3.06857 18.2515C3.09081 18.3717 3.14777 18.4826 3.2324 18.5707L3.23621 18.5746C3.26455 18.6036 3.29564 18.6298 3.32905 18.6528C3.46564 18.7467 3.63395 18.7825 3.79694 18.7523Z" fill="#16171B"/>
<path fill-rule="evenodd" clip-rule="evenodd" d="M11.7667 3.81274C11.7667 3.81274 11.0991 3.93166 10.4988 4.18264C10.4988 4.18264 10.3025 3.88995 10.0534 3.63329C10.0534 3.63329 8.88981 2.4221 7.20741 2.38837C7.20741 2.38837 5.525 2.35463 4.31151 3.52042C4.31151 3.52042 3.09802 4.6862 3.06428 6.36861C3.06428 6.36861 3.03054 8.05101 4.19633 9.2645L8.52626 13.7716C8.52626 13.7716 9.77405 15.0705 11.5332 15.4572C11.5332 15.4572 13.2923 15.844 14.9698 15.1882C14.9698 15.1882 16.6473 14.5324 17.6778 13.0552C17.6778 13.0552 18.7082 11.578 18.7443 9.77724C18.7443 9.77724 18.7804 7.97648 17.81 6.45914C17.81 6.45914 16.8396 4.94181 15.1897 4.21932C15.1897 4.21932 13.5399 3.49684 11.7667 3.81274ZM10.5028 5.57286L10.4934 5.57708C10.4934 5.57708 9.99359 5.86187 9.56058 6.27786C9.31166 6.51699 8.91601 6.50906 8.67688 6.26014C8.56204 6.1406 8.49939 5.98034 8.50272 5.81461C8.50604 5.64889 8.57506 5.49127 8.6946 5.37643L8.69506 5.37599C8.69506 5.37599 9.03152 5.05282 9.3998 4.79218C9.3998 4.79218 9.28906 4.64056 9.1564 4.5039C9.1564 4.5039 8.34709 3.66147 7.18235 3.63812C7.18235 3.63812 6.01761 3.61476 5.17749 4.42184C5.17749 4.42184 4.33738 5.22893 4.31403 6.39367C4.31403 6.39367 4.29067 7.55841 5.09775 8.39852L9.42768 12.9056C9.42768 12.9056 10.4128 13.9311 11.8016 14.2364C11.8016 14.2364 13.1903 14.5417 14.5147 14.024C14.5147 14.024 15.839 13.5063 16.6525 12.3401C16.6525 12.3401 17.4661 11.1738 17.4946 9.75218C17.4946 9.75218 17.5231 8.33053 16.757 7.13263C16.757 7.13263 15.9908 5.93473 14.6883 5.36435C14.6883 5.36435 13.3858 4.79397 11.9859 5.04336C11.9859 5.04336 11.2374 5.17671 10.5959 5.5204C10.5665 5.54051 10.5353 5.55806 10.5028 5.57286Z" fill="#16171B"/>
</g>
<defs>
<clipPath id="clip0_659_72199">
<rect width="20" height="20" fill="white"/>
</clipPath>
</defs>
</svg>
