<svg width="20" height="20" viewBox="0 0 20 20" fill="none" xmlns="http://www.w3.org/2000/svg">
<g clip-path="url(#clip0_659_72174)">
<path d="M9.85328 8.55907C9.74975 8.55907 9.65036 8.5218 9.57167 8.44311C9.4143 8.28574 9.41431 8.03312 9.56753 7.87575L13.1415 4.27284C13.8123 3.59781 14.6903 3.2251 15.6179 3.2251H17.6458C17.8653 3.2251 18.0475 3.40317 18.0475 3.6268C18.0475 3.84629 17.8694 4.02851 17.6458 4.02851H15.6179C14.9056 4.02851 14.2265 4.31426 13.7088 4.8402L10.139 8.44311C10.0603 8.51765 9.95682 8.55907 9.85328 8.55907Z" fill="#16171B" stroke="#16171B" stroke-width="0.4625"/>
<path d="M17.587 15.1091H15.7953C15.5758 15.1091 15.3936 14.931 15.3936 14.7074C15.3936 13.4029 14.3293 12.3385 13.0248 12.3385C11.7203 12.3385 10.656 13.4029 10.656 14.7074C10.656 14.9268 10.4779 15.1091 10.2543 15.1091H8.0311C7.1987 15.1091 6.51953 14.4299 6.51953 13.5975V9.26572C6.51953 8.43332 7.1987 7.75415 8.0311 7.75415H17.587C17.8065 7.75415 17.9887 7.93223 17.9887 8.15585C17.9887 8.37534 17.8107 8.55756 17.587 8.55756H8.0311C7.64182 8.55756 7.32294 8.87644 7.32294 9.26572V13.5975C7.32294 13.9868 7.64182 14.3057 8.0311 14.3057H9.87745C10.0762 12.7444 11.4097 11.5351 13.0248 11.5351C14.6399 11.5351 15.9734 12.7444 16.1722 14.3057H17.587C17.8065 14.3057 17.9887 14.4837 17.9887 14.7074C17.9887 14.9268 17.8065 15.1091 17.587 15.1091Z" fill="#16171B" stroke="#16171B" stroke-width="0.4625"/>
<path d="M13.0243 17.8764C11.2766 17.8764 9.85205 16.456 9.85205 14.7042C9.85205 12.9566 11.2766 11.532 13.0243 11.532C14.7719 11.532 16.1965 12.9566 16.1965 14.7042C16.1965 16.4518 14.7719 17.8764 13.0243 17.8764ZM13.0243 12.3354C11.7198 12.3354 10.6555 13.3997 10.6555 14.7042C10.6555 16.0087 11.7198 17.073 13.0243 17.073C14.3329 17.073 15.3931 16.0087 15.3931 14.7042C15.3931 13.3956 14.3329 12.3354 13.0243 12.3354Z" fill="#16171B" stroke="#16171B" stroke-width="0.4625"/>
<path d="M4.61411 8.97233C4.39048 8.97233 4.2124 8.79425 4.2124 8.57063C4.2124 6.69049 5.74053 5.16235 7.62067 5.16235C7.84016 5.16235 8.02238 5.34043 8.02238 5.56406C8.02238 5.78355 7.8443 5.96576 7.62067 5.96576C6.18365 5.96576 5.0158 7.1336 5.0158 8.57063C5.0158 8.79011 4.83774 8.97233 4.61411 8.97233Z" fill="#16171B" stroke="#16171B" stroke-width="0.4625"/>
<path d="M2.2767 8.02885C2.05308 8.02885 1.875 7.85078 1.875 7.62715C1.875 4.79865 4.17341 2.50024 7.00191 2.50024C7.2214 2.50024 7.40361 2.67832 7.40361 2.90195C7.40361 3.12558 7.22554 3.30365 7.00191 3.30365C4.61653 3.30365 2.67841 5.24177 2.67841 7.62715C2.67841 7.84664 2.50033 8.02885 2.2767 8.02885Z" fill="#16171B" stroke="#16171B" stroke-width="0.4625"/>
<path d="M9.02444 12.0544C8.80495 12.0544 8.62274 11.8763 8.62274 11.6527V11.0563H7.55014C7.33065 11.0563 7.14844 10.8783 7.14844 10.6546C7.14844 10.4351 7.32651 10.2529 7.55014 10.2529H9.02444C9.24393 10.2529 9.42615 10.431 9.42615 10.6546V11.6527C9.422 11.8763 9.24393 12.0544 9.02444 12.0544Z" fill="#16171B" stroke="#16171B" stroke-width="0.4625"/>
</g>
<defs>
<clipPath id="clip0_659_72174">
<rect width="20" height="20" fill="white"/>
</clipPath>
</defs>
</svg>
