<svg width="20" height="20" viewBox="0 0 20 20" fill="none" xmlns="http://www.w3.org/2000/svg">
<path fill-rule="evenodd" clip-rule="evenodd" d="M10 2.5C10 2.5 11.5255 2.5 12.9195 3.08964C12.9195 3.08964 14.2656 3.65897 15.3033 4.6967C15.3033 4.6967 16.341 5.73443 16.9104 7.08047C16.9104 7.08047 17.5 8.47454 17.5 10C17.5 10 17.5 11.5255 16.9104 12.9195C16.9104 12.9195 16.341 14.2656 15.3033 15.3033C15.3033 15.3033 14.2656 16.341 12.9195 16.9104C12.9195 16.9104 11.5255 17.5 10 17.5C10 17.5 8.47455 17.5 7.08047 16.9104C7.08047 16.9104 5.73442 16.341 4.6967 15.3033C4.6967 15.3033 3.65897 14.2656 3.08964 12.9195C3.08964 12.9195 2.5 11.5255 2.5 10C2.5 10 2.5 8.47454 3.08964 7.08047C3.08964 7.08047 3.65897 5.73443 4.6967 4.6967C4.6967 4.6967 5.73443 3.65897 7.08047 3.08964C7.08047 3.08964 8.47454 2.5 10 2.5ZM10 3.75C10 3.75 8.72803 3.75 7.56741 4.2409C7.56741 4.2409 6.44591 4.71525 5.58058 5.58058C5.58058 5.58058 4.71525 6.44591 4.2409 7.56741C4.2409 7.56741 3.75 8.72802 3.75 10C3.75 10 3.75 11.272 4.2409 12.4326C4.2409 12.4326 4.71525 13.5541 5.58058 14.4194C5.58058 14.4194 6.44591 15.2847 7.56741 15.7591C7.56741 15.7591 8.72803 16.25 10 16.25C10 16.25 11.272 16.25 12.4326 15.7591C12.4326 15.7591 13.5541 15.2847 14.4194 14.4194C14.4194 14.4194 15.2847 13.5541 15.7591 12.4326C15.7591 12.4326 16.25 11.272 16.25 10C16.25 10 16.25 8.72803 15.7591 7.56741C15.7591 7.56741 15.2847 6.44591 14.4194 5.58058C14.4194 5.58058 13.5541 4.71525 12.4326 4.2409C12.4326 4.2409 11.272 3.75 10 3.75Z" fill="#16171B"/>
<path d="M9.375 1.5625V4.6875C9.375 5.03268 9.65482 5.3125 10 5.3125C10.3452 5.3125 10.625 5.03268 10.625 4.6875V1.5625C10.625 1.21732 10.3452 0.9375 10 0.9375C9.65482 0.9375 9.375 1.21732 9.375 1.5625Z" fill="#16171B"/>
<path d="M1.5625 10.625H4.6875C5.03268 10.625 5.3125 10.3452 5.3125 10C5.3125 9.65482 5.03268 9.375 4.6875 9.375H1.5625C1.21732 9.375 0.9375 9.65482 0.9375 10C0.9375 10.3452 1.21732 10.625 1.5625 10.625Z" fill="#16171B"/>
<path d="M10.625 18.4375V15.3125C10.625 14.9673 10.3452 14.6875 10 14.6875C9.65482 14.6875 9.375 14.9673 9.375 15.3125V18.4375C9.375 18.7827 9.65482 19.0625 10 19.0625C10.3452 19.0625 10.625 18.7827 10.625 18.4375Z" fill="#16171B"/>
<path d="M18.4375 9.375H15.3125C14.9673 9.375 14.6875 9.65482 14.6875 10C14.6875 10.3452 14.9673 10.625 15.3125 10.625H18.4375C18.7827 10.625 19.0625 10.3452 19.0625 10C19.0625 9.65482 18.7827 9.375 18.4375 9.375Z" fill="#16171B"/>
<path fill-rule="evenodd" clip-rule="evenodd" d="M10 6.875C10 6.875 11.2944 6.875 12.2097 7.79029C12.2097 7.79029 13.125 8.70558 13.125 10C13.125 10 13.125 11.2944 12.2097 12.2097C12.2097 12.2097 11.2944 13.125 10 13.125C10 13.125 8.70558 13.125 7.79029 12.2097C7.79029 12.2097 6.875 11.2944 6.875 10C6.875 10 6.875 8.70558 7.79029 7.79029C7.79029 7.79029 8.70558 6.875 10 6.875ZM10 8.125C10 8.125 9.22335 8.125 8.67418 8.67417C8.67418 8.67417 8.125 9.22335 8.125 10C8.125 10 8.125 10.7767 8.67418 11.3258C8.67418 11.3258 9.22335 11.875 10 11.875C10 11.875 10.7767 11.875 11.3258 11.3258C11.3258 11.3258 11.875 10.7767 11.875 10C11.875 10 11.875 9.22335 11.3258 8.67417C11.3258 8.67417 10.7767 8.125 10 8.125Z" fill="#16171B"/>
</svg>
