<svg width="20" height="20" viewBox="0 0 20 20" fill="none" xmlns="http://www.w3.org/2000/svg">
<path d="M7.65158 3.73134C7.65841 3.72963 7.66521 3.72781 7.67197 3.72587C7.94015 3.64912 8.125 3.40394 8.125 3.125C8.125 3.0739 8.11873 3.02299 8.10634 2.97342C8.10463 2.96659 8.10281 2.95979 8.10087 2.95303C8.05727 2.80069 7.95744 2.67059 7.82156 2.58907C7.81027 2.58229 7.79876 2.57587 7.78706 2.56982C7.69833 2.52394 7.59989 2.5 7.5 2.5C7.4489 2.5 7.39799 2.50627 7.34841 2.51866L2.34842 3.76866C2.07019 3.83822 1.875 4.08821 1.875 4.375L1.875 15.625C1.875 15.9702 2.15482 16.25 2.5 16.25C2.5511 16.25 2.60201 16.2437 2.65158 16.2313L7.65158 14.9813C7.92981 14.9118 8.125 14.6618 8.125 14.375L8.12493 14.366C8.12424 14.3179 8.118 14.2701 8.10634 14.2234C8.06614 14.0626 7.9637 13.9243 7.82156 13.8391C7.72442 13.7808 7.61328 13.75 7.5 13.75H7.49926C7.4484 13.7501 7.39775 13.7563 7.34841 13.7687L3.125 14.8245V4.86298L7.65158 3.73134Z" fill="#16171B"/>
<path fill-rule="evenodd" clip-rule="evenodd" d="M13.125 5.625V16.875C13.125 17.2202 12.8452 17.5 12.5 17.5C12.403 17.5 12.3073 17.4774 12.2205 17.434L7.22049 14.934C7.00875 14.8281 6.875 14.6117 6.875 14.375V3.125C6.875 2.77982 7.15482 2.5 7.5 2.5C7.59703 2.5 7.69272 2.52259 7.77951 2.56598L12.7795 5.06598C12.9912 5.17185 13.125 5.38827 13.125 5.625ZM11.875 15.8637V6.01127L8.125 4.13627V13.9887L11.875 15.8637Z" fill="#16171B"/>
<path d="M16.875 15.137L12.3487 16.2686C12.0705 16.3381 11.875 16.5882 11.875 16.875L11.8751 16.884C11.8758 16.9321 11.882 16.9799 11.8937 17.0266C11.9339 17.1874 12.0363 17.3257 12.1784 17.4109C12.2756 17.4692 12.3867 17.5 12.5 17.5H12.5007C12.5516 17.4999 12.6022 17.4937 12.6516 17.4813L17.6516 16.2313C17.9298 16.1618 18.125 15.9118 18.125 15.625V4.375C18.125 4.02982 17.8452 3.75 17.5 3.75C17.4489 3.75 17.398 3.75627 17.3484 3.76866L12.3485 5.01863C12.0702 5.08822 11.875 5.33821 11.875 5.625L11.8751 5.63402C11.8758 5.6821 11.882 5.72994 11.8937 5.77658C11.9632 6.05481 12.2132 6.25 12.5 6.25L12.509 6.24993C12.5571 6.24924 12.6049 6.243 12.6516 6.23134L16.875 5.17549V15.137Z" fill="#16171B"/>
</svg>
