<svg width="240" height="48" viewBox="0 0 240 48" fill="none" xmlns="http://www.w3.org/2000/svg">
<path fill-rule="evenodd" clip-rule="evenodd" d="M94.1615 38.9538V39.3213H87.0378L74.1758 25.696H68.3809V8.59375H74.1758V21.5971L85.8224 8.59375H93.0307V8.79163L79.3772 23.4911L94.1615 38.9538ZM68.3809 39.293V25.696L74.1758 31.5193V39.293H68.3809Z" fill="#1EAAB1"/>
<path fill-rule="evenodd" clip-rule="evenodd" d="M118.896 33.5263H102.84L100.211 39.293H93.9355L107.702 8.59375H114.034L127.801 39.293H121.469L118.896 33.5263ZM110.868 15.0672L105.186 28.1271H116.578L110.868 15.0672Z" fill="#1EAAB1"/>
<path d="M150.104 8.56494H155.899V39.2925H152.309V39.349L136.168 18.6002V39.2925H130.373V8.59321H135.066L150.104 27.6177V8.56494Z" fill="#1EAAB1"/>
<path d="M228.802 39.293H223.884L220.068 29.6536L216.817 19.9576L213.622 29.7384L209.891 39.293H204.972L193.693 8.59375H200.195L207.432 30.756L214.866 8.59375H218.682L226.343 30.756L233.354 8.59375H239.855L228.802 39.293Z" fill="#1EAAB1"/>
<path fill-rule="evenodd" clip-rule="evenodd" d="M175.63 8C177.383 8 178.994 8.21672 180.464 8.65017C181.934 9.06477 183.253 9.64898 184.421 10.4028C185.59 11.1566 186.617 12.0424 187.503 13.06C188.388 14.0777 189.114 15.1801 189.679 16.3674C190.264 17.5735 190.697 18.8361 190.98 20.1553C191.244 21.4745 191.375 22.7937 191.375 24.1129C191.357 25.4509 191.206 26.7701 190.923 28.0704C190.64 29.3708 190.216 30.6051 189.651 31.7736C189.086 32.9608 188.37 34.0539 187.503 35.0527C186.655 36.0515 185.646 36.9184 184.478 37.6533C183.31 38.3883 181.99 38.9631 180.521 39.3777C179.051 39.7923 177.42 39.9996 175.63 39.9996C173.84 39.9996 172.2 39.8017 170.711 39.406C169.241 38.9914 167.922 38.4166 166.754 37.6816C165.567 36.9655 164.549 36.108 163.701 35.1092C162.834 34.1292 162.118 33.0456 161.553 31.8584C160.968 30.6899 160.535 29.4461 160.252 28.127C159.988 26.8266 159.856 25.5074 159.856 24.1694C159.856 22.8314 159.998 21.4934 160.28 20.1553C160.563 18.8361 160.997 17.5829 161.581 16.3957C162.165 15.1895 162.891 14.0777 163.757 13.06C164.624 12.0424 165.651 11.1566 166.839 10.4028C168.007 9.64898 169.317 9.06477 170.768 8.65017C172.238 8.21672 173.859 8 175.63 8ZM175.63 13.2296C173.821 13.2296 172.276 13.5688 170.994 14.2473C169.694 14.9069 168.638 15.7643 167.828 16.8197C166.999 17.875 166.405 19.0529 166.047 20.3532C165.689 21.6724 165.52 22.9727 165.538 24.2542C165.576 25.5169 165.783 26.7701 166.16 28.0139C166.537 29.2577 167.121 30.379 167.913 31.3778C168.723 32.3578 169.76 33.1587 171.022 33.7806C172.285 34.3836 173.821 34.6852 175.63 34.6852C176.836 34.6852 177.92 34.5438 178.881 34.2612C179.842 33.9785 180.69 33.5921 181.425 33.1022C182.179 32.6122 182.82 32.028 183.347 31.3495C183.875 30.6711 184.308 29.9455 184.648 29.1729C184.987 28.3814 185.241 27.571 185.411 26.7418C185.562 25.8938 185.646 25.0457 185.665 24.1977C185.684 23.3496 185.618 22.4827 185.467 21.597C185.298 20.7301 185.043 19.8821 184.704 19.0529C184.365 18.2425 183.932 17.4887 183.404 16.7914C182.857 16.0753 182.207 15.4534 181.453 14.9257C180.718 14.398 179.861 13.9834 178.881 13.6819C177.92 13.3804 176.836 13.2296 175.63 13.2296Z" fill="#1EAAB1"/>
<path d="M50.2892 9.41306L43.6744 16.0278C42.8546 16.8476 42.8546 18.1197 43.6744 18.9112L50.2892 25.5542C50.6849 25.9217 50.8828 26.4305 50.8828 26.9676V45.9638C50.8828 47.773 48.7061 48.6776 47.4058 47.4055L17.498 17.4695L34.4024 0.593388C34.7699 0.197633 35.2787 -0.000244141 35.8158 -0.000244141H48.8475C49.9782 -0.000244141 50.8828 0.904338 50.8828 2.03507V7.97139C50.8828 8.50848 50.6849 9.01731 50.2892 9.41306Z" fill="#1EAAB1"/>
<path d="M17.498 17.4697V32.5649C17.498 33.102 17.2719 33.6108 16.9044 33.9783L3.477 47.4057C2.20493 48.6778 0 47.7732 0 45.9641V4.86209C0 3.05292 2.20493 2.14834 3.477 3.42041L17.498 17.4697Z" fill="#1EAAB1"/>
</svg>
