<svg width="849" height="170" viewBox="0 0 849 170" fill="none" xmlns="http://www.w3.org/2000/svg">
<path fill-rule="evenodd" clip-rule="evenodd" d="M333.1 137.8V139.1H307.8L262.4 90.9H241.9V30.4H262.4V76.4L303.6 30.4H329.1V31.1L280.8 83.1L333.1 137.8ZM241.8 139V90.9L262.4 111.5V139H241.8Z" fill="black"/>
<path fill-rule="evenodd" clip-rule="evenodd" d="M420.5 118.6H363.8L354.5 139H332.3L381 30.4H403.3L452.1 139H429.7L420.5 118.6ZM392.1 53.3L372 99.5H412.3L392.1 53.3Z" fill="black"/>
<path d="M531 30.3H551.5V139H538.8V139.2L481.7 65.8001V139H461.2V30.4H477.8L531 97.7V30.3Z" fill="black"/>
<path d="M809.4 139H791.9L778.5 104.9L767 70.6L755.7 105.2L742.5 139H725.1L685.2 30.4H708.2L733.8 108.8L760.1 30.4H773.5L800.7 108.8L825.5 30.4H848.5L809.4 139Z" fill="black"/>
<path fill-rule="evenodd" clip-rule="evenodd" d="M621.3 28.3C627.5 28.3 633.2 29.0667 638.4 30.6C643.6 32.0667 648.267 34.1334 652.4 36.8C656.533 39.4667 660.167 42.6 663.3 46.2001C666.367 49.8001 668.933 53.7001 671 57.9001C673.067 62.1667 674.6 66.6334 675.6 71.3001C676.533 75.9667 677 80.6334 677 85.3001C676.933 90.0334 676.4 94.7001 675.4 99.3C674.333 103.9 672.833 108.267 670.9 112.4C668.9 116.6 666.367 120.467 663.3 124C660.3 127.533 656.733 130.6 652.6 133.2C648.467 135.8 643.8 137.833 638.6 139.3C633.4 140.767 627.633 141.5 621.3 141.5C614.9 141.5 609.1 140.8 603.9 139.4C598.7 137.933 594 135.9 589.8 133.3C585.667 130.767 582.067 127.733 579 124.2C576 120.733 573.467 116.9 571.4 112.7C569.4 108.567 567.9 104.167 566.9 99.5C565.967 94.9 565.5 90.2334 565.5 85.5C565.5 80.7667 566 76.0334 567 71.3001C568 66.6334 569.533 62.2001 571.6 58C573.667 53.7334 576.233 49.8001 579.3 46.2001C582.367 42.6 585.967 39.4667 590.1 36.8C594.3 34.1334 598.967 32.0667 604.1 30.6C609.3 29.0667 615.033 28.3 621.3 28.3ZM621.3 46.8C614.9 46.8 609.4 48.0001 604.8 50.4001C600.267 52.7334 596.567 55.7667 593.7 59.5C590.767 63.2334 588.667 67.4001 587.4 72C586.067 76.6667 585.467 81.2667 585.6 85.8001C585.733 90.2667 586.467 94.7001 587.8 99.1001C589.133 103.5 591.2 107.467 594 111C596.867 114.467 600.533 117.3 605 119.5C609.467 121.633 614.9 122.7 621.3 122.7C625.5 122.7 629.333 122.2 632.8 121.2C636.2 120.2 639.2 118.833 641.8 117.1C644.4 115.367 646.633 113.3 648.5 110.9C650.433 108.5 652 105.933 653.2 103.2C654.4 100.4 655.3 97.5334 655.9 94.6001C656.433 91.6001 656.733 88.6 656.8 85.6C656.867 82.6 656.6 79.5334 656 76.4001C655.467 73.3334 654.6 70.3334 653.4 67.4001C652.2 64.5334 650.633 61.8667 648.7 59.4001C646.833 56.8667 644.567 54.6667 641.9 52.8C639.233 50.9334 636.2 49.4667 632.8 48.4001C629.333 47.3334 625.5 46.8 621.3 46.8Z" fill="black"/>
<path d="M177.9 33.3L154.4 56.7C151.6 59.6 151.6 64.1 154.4 66.9L177.9 90.4C179.2 91.7 180 93.5 180 95.4V162.6C180 169 172.3 172.2 167.7 167.7L61.9 61.8L121.6 2.1C123 0.7 124.8 0 126.7 0H172.8C176.8 0 180 3.2 180 7.2V28.2C180 30.1 179.2 31.9 177.9 33.3Z" fill="#46B0B9"/>
<path d="M61.9 61.7999V115.2C61.9 117.1 61.1 118.9 59.8 120.2L12.3 167.7C7.7 172.2 0 169 0 162.6V17.1999C0 10.7999 7.8 7.59995 12.3 12.0999L61.9 61.7999Z" fill="#46B0B9"/>
</svg>
