<svg width="64" height="64" viewBox="0 0 64 64" fill="none" xmlns="http://www.w3.org/2000/svg">
<circle cx="16" cy="48" r="16" fill="#FAC232"/>
<path d="M41.7333 57.0934C40.5867 57.0934 39.44 56.8534 38.5067 56.4001L24.5067 49.3867C23.7067 48.9867 22.1333 49.0134 21.36 49.4667L15.0667 53.0667C12.3467 54.6134 9.54667 54.8267 7.44 53.5734C5.30667 52.3467 4.10667 49.8401 4.10667 46.6934V20.7734C4.10667 18.3467 5.70667 15.6 7.81333 14.4L19.36 7.78672C21.3067 6.66672 24.2667 6.58672 26.2667 7.60005L40.2667 14.6134C41.0667 15.0134 42.6133 14.96 43.4133 14.5334L49.68 10.96C52.4 9.41338 55.2 9.20005 57.3067 10.4534C59.44 11.68 60.64 14.1867 60.64 17.3334V43.28C60.64 45.7067 59.04 48.4534 56.9333 49.6534L45.3867 56.2667C44.3733 56.8001 43.04 57.0934 41.7333 57.0934ZM23.04 45.12C24.1867 45.12 25.3333 45.3601 26.2667 45.8134L40.2667 52.8267C41.0667 53.2267 42.6133 53.1734 43.4133 52.7467L54.96 46.1334C55.8133 45.6534 56.64 44.2134 56.64 43.2534V17.3067C56.64 15.6267 56.16 14.3734 55.28 13.8934C54.4267 13.4134 53.0933 13.6 51.6533 14.4267L45.3867 18C43.44 19.12 40.48 19.2 38.48 18.1867L24.48 11.1734C23.68 10.7734 22.1333 10.8267 21.3333 11.2534L9.78667 17.8667C8.93333 18.3467 8.10667 19.7867 8.10667 20.7734V46.7201C8.10667 48.4001 8.58667 49.6534 9.44 50.1334C10.2933 50.6401 11.6267 50.4267 13.0933 49.6001L19.36 46.0267C20.4 45.4134 21.7333 45.12 23.04 45.12Z" fill="#09080D"/>
<path d="M22.8267 47.3333C21.7333 47.3333 20.8267 46.4266 20.8267 45.3333V10.6666C20.8267 9.57329 21.7333 8.66663 22.8267 8.66663C23.92 8.66663 24.8267 9.57329 24.8267 10.6666V45.3333C24.8267 46.4266 23.92 47.3333 22.8267 47.3333Z" fill="#09080D"/>
<path d="M41.9467 55.3333C40.8533 55.3333 39.9467 54.4267 39.9467 53.3333V17.6533C39.9467 16.56 40.8533 15.6533 41.9467 15.6533C43.04 15.6533 43.9467 16.56 43.9467 17.6533V53.3333C43.9467 54.4267 43.04 55.3333 41.9467 55.3333Z" fill="#09080D"/>
</svg>
