<svg width="64" height="64" viewBox="0 0 64 64" fill="none" xmlns="http://www.w3.org/2000/svg">
<circle cx="16" cy="48" r="16" fill="#23BF87"/>
<path d="M34.6667 60.6667H13.3333C6.87998 60.6667 3.33331 57.12 3.33331 50.6667V29.3334C3.33331 22.88 6.87998 19.3334 13.3333 19.3334H26.6666C27.76 19.3334 28.6666 20.24 28.6666 21.3334V50.6667C28.6666 54.88 30.4533 56.6667 34.6667 56.6667C35.76 56.6667 36.6667 57.5734 36.6667 58.6667C36.6667 59.76 35.76 60.6667 34.6667 60.6667ZM13.3333 23.3334C9.11998 23.3334 7.33331 25.12 7.33331 29.3334V50.6667C7.33331 54.88 9.11998 56.6667 13.3333 56.6667H26.1333C25.1733 55.0934 24.6666 53.0934 24.6666 50.6667V23.3334H13.3333Z" fill="#09080D"/>
<path d="M26.6666 23.3333H13.3333C12.24 23.3333 11.3333 22.4266 11.3333 21.3333V16C11.3333 11.9466 14.6133 8.66663 18.6666 8.66663H26.9599C27.5733 8.66663 28.16 8.9599 28.5333 9.4399C28.9067 9.94657 29.0399 10.5866 28.8799 11.1733C28.7199 11.76 28.6666 12.4266 28.6666 13.3333V21.3333C28.6666 22.4266 27.76 23.3333 26.6666 23.3333ZM15.3333 19.3333H24.6666V13.3333C24.6666 13.0933 24.6666 12.88 24.6666 12.6666H18.6666C16.8266 12.6666 15.3333 14.16 15.3333 16V19.3333Z" fill="#09080D"/>
<path d="M37.3333 36.6667C36.24 36.6667 35.3333 35.76 35.3333 34.6667V21.3334C35.3333 20.24 36.24 19.3334 37.3333 19.3334C38.4266 19.3334 39.3333 20.24 39.3333 21.3334V34.6667C39.3333 35.76 38.4266 36.6667 37.3333 36.6667Z" fill="#09080D"/>
<path d="M48 36.6667C46.9067 36.6667 46 35.76 46 34.6667V21.3334C46 20.24 46.9067 19.3334 48 19.3334C49.0933 19.3334 50 20.24 50 21.3334V34.6667C50 35.76 49.0933 36.6667 48 36.6667Z" fill="#09080D"/>
<path d="M48 60.6667H37.3333C36.24 60.6667 35.3333 59.76 35.3333 58.6667V48C35.3333 45.44 37.44 43.3334 40 43.3334H45.3333C47.8933 43.3334 50 45.44 50 48V58.6667C50 59.76 49.0933 60.6667 48 60.6667ZM39.3333 56.6667H46V48C46 47.6267 45.7066 47.3334 45.3333 47.3334H40C39.6266 47.3334 39.3333 47.6267 39.3333 48V56.6667Z" fill="#09080D"/>
<path d="M16 47.3333C14.9067 47.3333 14 46.4266 14 45.3333V34.6666C14 33.5733 14.9067 32.6666 16 32.6666C17.0933 32.6666 18 33.5733 18 34.6666V45.3333C18 46.4266 17.0933 47.3333 16 47.3333Z" fill="#09080D"/>
<path d="M50.6667 60.6667H34.6667C28.2134 60.6667 24.6667 57.12 24.6667 50.6667V13.3334C24.6667 6.88004 28.2134 3.33337 34.6667 3.33337H50.6667C57.12 3.33337 60.6667 6.88004 60.6667 13.3334V50.6667C60.6667 57.12 57.12 60.6667 50.6667 60.6667ZM34.6667 7.33337C30.4534 7.33337 28.6667 9.12004 28.6667 13.3334V50.6667C28.6667 54.88 30.4534 56.6667 34.6667 56.6667H50.6667C54.88 56.6667 56.6667 54.88 56.6667 50.6667V13.3334C56.6667 9.12004 54.88 7.33337 50.6667 7.33337H34.6667Z" fill="#09080D"/>
</svg>
